<svg width="60" height="60" viewBox="0 0 60 60" fill="none" xmlns="http://www.w3.org/2000/svg">
<rect width="60" height="60" rx="30" fill="white" fill-opacity="0.05"/>
<path fill-rule="evenodd" clip-rule="evenodd" d="M20.544 23.1685C20.8 22.8084 21.1382 22.5145 21.5306 22.3114C21.923 22.1082 22.3582 22.0017 22.8 22.0005H37.2C38.136 22.0005 38.953 22.4705 39.456 23.1685C39.799 23.6465 40 24.2355 40 24.8675V35.1335C40 36.6825 38.78 38.0005 37.2 38.0005H22.8C21.22 38.0005 20 36.6825 20 35.1335V24.8675C20 24.2355 20.2 23.6465 20.544 23.1675V23.1685ZM22.933 24.0005L29.26 30.9655C29.3537 31.0686 29.468 31.151 29.5954 31.2074C29.7228 31.2638 29.8607 31.2929 30 31.2929C30.1393 31.2929 30.2772 31.2638 30.4046 31.2074C30.532 31.151 30.6463 31.0686 30.74 30.9655L37.067 24.0005H22.933ZM38 25.9485L32.22 32.3105C31.9388 32.6198 31.5961 32.867 31.2138 33.0362C30.8315 33.2053 30.418 33.2927 30 33.2927C29.582 33.2927 29.1685 33.2053 28.7862 33.0362C28.4039 32.867 28.0612 32.6198 27.78 32.3105L22 25.9485V35.1335C22 35.6475 22.392 36.0005 22.8 36.0005H37.2C37.608 36.0005 38 35.6475 38 35.1335V25.9485Z" fill="white"/>
</svg>
